<svg width="46" height="39" viewBox="0 0 46 39" fill="none" xmlns="http://www.w3.org/2000/svg">
<path d="M22.835 28.4907C26.8706 28.4907 30.1422 25.3984 30.1422 21.5839C30.1422 17.7694 26.8706 14.6771 22.835 14.6771C18.7993 14.6771 15.5278 17.7694 15.5278 21.5839C15.5278 25.3984 18.7993 28.4907 22.835 28.4907Z" fill="white"/>
<path d="M15.9845 0L11.8057 4.31675H4.567C2.05515 4.31675 0 6.25929 0 8.63351V34.534C0 36.9082 2.05515 38.8508 4.567 38.8508H41.103C43.6148 38.8508 45.67 36.9082 45.67 34.534V8.63351C45.67 6.25929 43.6148 4.31675 41.103 4.31675H33.8643L29.6855 0H15.9845ZM22.835 32.3756C16.5325 32.3756 11.4175 27.5409 11.4175 21.5838C11.4175 15.6266 16.5325 10.7919 22.835 10.7919C29.1375 10.7919 34.2525 15.6266 34.2525 21.5838C34.2525 27.5409 29.1375 32.3756 22.835 32.3756Z" fill="white"/>
</svg>
