<svg width="36" height="48" viewBox="0 0 36 48" fill="none" xmlns="http://www.w3.org/2000/svg">
<path fill-rule="evenodd" clip-rule="evenodd" d="M35.7 17.85C35.7 7.99171 27.7083 0 17.85 0C7.99172 0 0 7.99171 0 17.85C0 23.2814 3.94294 31.2691 11.8083 41.9524L12.9873 43.5351L14.1936 45.1191L15.4452 46.7297C16.4883 48.059 18.4085 48.2906 19.7357 47.2492C19.9282 47.0981 20.1019 46.9244 20.253 46.7318C30.5419 33.6201 35.7 24.0608 35.7 17.85ZM2.29104 17.8496C2.29104 9.25658 9.25708 2.29054 17.8501 2.29054C26.4432 2.29054 33.4092 9.25658 33.4092 17.8496C33.4092 23.1527 29.6068 30.7532 20.4718 42.6064L19.302 44.1103L17.8501 45.9264L15.4453 42.9301C6.67855 31.4208 2.29104 23.0252 2.29104 17.8496ZM17.8501 9.73597C22.0675 9.73597 25.4865 13.1549 25.4865 17.3723C25.4865 21.5898 22.0675 25.0087 17.8501 25.0087C13.6327 25.0087 10.2137 21.5898 10.2137 17.3723C10.2137 13.1549 13.6327 9.73597 17.8501 9.73597ZM12.5048 17.373C12.5048 14.4208 14.898 12.0275 17.8502 12.0275C20.8024 12.0275 23.1957 14.4208 23.1957 17.373C23.1957 20.3252 20.8024 22.7184 17.8502 22.7184C14.898 22.7184 12.5048 20.3252 12.5048 17.373Z" fill="white"/>
</svg>
