<svg width="40" height="40" viewBox="0 0 40 40" fill="none" xmlns="http://www.w3.org/2000/svg">
<path fill-rule="evenodd" clip-rule="evenodd" d="M40 20C40 8.9543 31.0457 0 20 0C8.9543 0 0 8.9543 0 20C0 31.0457 8.9543 40 20 40C31.0457 40 40 31.0457 40 20ZM1.81819 20C1.81819 9.95844 9.95847 1.81816 20 1.81816C30.0415 1.81816 38.1818 9.95844 38.1818 20C38.1818 30.0415 30.0415 38.1818 20 38.1818C9.95847 38.1818 1.81819 30.0415 1.81819 20ZM21.8182 15.4545V30H23.6364V30.9091H16.3636V30H18.1818V16.3636H16.3636V15.4545H21.8182ZM22.1818 10.6364C22.1818 9.28077 21.0829 8.18184 19.7273 8.18184C18.3717 8.18184 17.2727 9.28077 17.2727 10.6364C17.2727 11.992 18.3717 13.0909 19.7273 13.0909C21.0829 13.0909 22.1818 11.992 22.1818 10.6364Z" fill="white"/>
</svg>
