<svg width="47" height="39" viewBox="0 0 47 39" fill="none" xmlns="http://www.w3.org/2000/svg">
<mask id="path-1-outside-1_5_131" maskUnits="userSpaceOnUse" x="0" y="0" width="47" height="39" fill="black">
<rect fill="white" width="47" height="39"/>
<path fill-rule="evenodd" clip-rule="evenodd" d="M39.1818 1C42.9474 1 46 4.0526 46 7.81818V31C46 34.7656 42.9474 37.8182 39.1818 37.8182H7.81818C4.0526 37.8182 1 34.7656 1 31V7.81818C1 4.0526 4.0526 1 7.81818 1H39.1818ZM43.1926 28.7145L36.2895 23.2022C35.7997 22.8112 35.1139 22.808 34.6231 23.1748L34.4943 23.284L23.5155 33.8215L18.6092 29.2658C18.134 28.8246 17.4219 28.7836 16.9026 29.1455L16.7661 29.2542L10.3177 35.0908H39.1818C41.4412 35.0908 43.2728 33.2593 43.2728 30.9999V28.7704L43.1926 28.7145ZM7.8182 3.72729H39.1818C41.4412 3.72729 43.2727 5.55886 43.2727 7.8182V25.2891L37.9913 21.0711L37.7784 20.9121C36.1898 19.8029 34.0212 19.9579 32.6058 21.3165L23.4845 30.0711L20.465 27.2673L20.2663 27.0943C18.7112 25.8246 16.4432 25.8676 14.9356 27.2326L6.49663 34.8728C4.8858 34.3232 3.72729 32.7969 3.72729 31V7.8182C3.72729 5.55886 5.55886 3.72729 7.8182 3.72729Z"/>
</mask>
<path fill-rule="evenodd" clip-rule="evenodd" d="M39.1818 1C42.9474 1 46 4.0526 46 7.81818V31C46 34.7656 42.9474 37.8182 39.1818 37.8182H7.81818C4.0526 37.8182 1 34.7656 1 31V7.81818C1 4.0526 4.0526 1 7.81818 1H39.1818ZM43.1926 28.7145L36.2895 23.2022C35.7997 22.8112 35.1139 22.808 34.6231 23.1748L34.4943 23.284L23.5155 33.8215L18.6092 29.2658C18.134 28.8246 17.4219 28.7836 16.9026 29.1455L16.7661 29.2542L10.3177 35.0908H39.1818C41.4412 35.0908 43.2728 33.2593 43.2728 30.9999V28.7704L43.1926 28.7145ZM7.8182 3.72729H39.1818C41.4412 3.72729 43.2727 5.55886 43.2727 7.8182V25.2891L37.9913 21.0711L37.7784 20.9121C36.1898 19.8029 34.0212 19.9579 32.6058 21.3165L23.4845 30.0711L20.465 27.2673L20.2663 27.0943C18.7112 25.8246 16.4432 25.8676 14.9356 27.2326L6.49663 34.8728C4.8858 34.3232 3.72729 32.7969 3.72729 31V7.8182C3.72729 5.55886 5.55886 3.72729 7.8182 3.72729Z" fill="white"/>
<path d="M36.2895 23.2022L35.6655 23.9837V23.9837L36.2895 23.2022ZM43.1926 28.7145L42.5686 29.496L42.5942 29.5164L42.621 29.5351L43.1926 28.7145ZM34.6231 23.1748L34.0244 22.3738L33.9997 22.3923L33.9761 22.4122L34.6231 23.1748ZM34.4943 23.284L33.8474 22.5214L33.824 22.5413L33.8019 22.5626L34.4943 23.284ZM23.5155 33.8215L22.8351 34.5543L23.5269 35.1967L24.208 34.543L23.5155 33.8215ZM18.6092 29.2658L17.9288 29.9986L18.6092 29.2658ZM16.9026 29.1455L16.3308 28.3252L16.3047 28.3434L16.2797 28.3632L16.9026 29.1455ZM16.7661 29.2542L16.1432 28.4719L16.1185 28.4916L16.095 28.5128L16.7661 29.2542ZM10.3177 35.0908L9.64668 34.3494L7.72277 36.0908H10.3177V35.0908ZM43.2728 28.7704H44.2728V28.2483L43.8443 27.9498L43.2728 28.7704ZM43.2727 25.2891L42.6487 26.0705L44.2727 27.3675V25.2891H43.2727ZM37.9913 21.0711L38.6153 20.2898L38.6027 20.2797L38.5899 20.2701L37.9913 21.0711ZM37.7784 20.9121L38.3769 20.111L38.364 20.1014L38.3508 20.0921L37.7784 20.9121ZM32.6058 21.3165L31.9133 20.595V20.595L32.6058 21.3165ZM23.4845 30.0711L22.8041 30.8039L23.4959 31.4463L24.177 30.7926L23.4845 30.0711ZM20.465 27.2673L21.1454 26.5345L21.1338 26.5237L21.1218 26.5133L20.465 27.2673ZM20.2663 27.0943L20.9231 26.3402L20.9111 26.3298L20.8987 26.3197L20.2663 27.0943ZM14.9356 27.2326L15.6067 27.974L15.6068 27.9739L14.9356 27.2326ZM6.49663 34.8728L6.17374 35.8192L6.73116 36.0094L7.16778 35.6141L6.49663 34.8728ZM47 7.81818C47 3.50032 43.4997 0 39.1818 0V2C42.3951 2 45 4.60489 45 7.81818H47ZM47 31V7.81818H45V31H47ZM39.1818 38.8182C43.4997 38.8182 47 35.3179 47 31H45C45 34.2133 42.3951 36.8182 39.1818 36.8182V38.8182ZM7.81818 38.8182H39.1818V36.8182H7.81818V38.8182ZM0 31C0 35.3179 3.50032 38.8182 7.81818 38.8182V36.8182C4.60489 36.8182 2 34.2133 2 31H0ZM0 7.81818V31H2V7.81818H0ZM7.81818 0C3.50032 0 0 3.50032 0 7.81818H2C2 4.60489 4.60489 2 7.81818 2V0ZM39.1818 0H7.81818V2H39.1818V0ZM35.6655 23.9837L42.5686 29.496L43.8166 27.9331L36.9135 22.4208L35.6655 23.9837ZM35.2217 23.9758C35.3521 23.8784 35.5353 23.8797 35.6655 23.9837L36.9135 22.4208C36.0642 21.7426 34.8757 21.7375 34.0244 22.3738L35.2217 23.9758ZM35.1412 24.0466L35.27 23.9374L33.9761 22.4122L33.8474 22.5214L35.1412 24.0466ZM24.208 34.543L35.1868 24.0055L33.8019 22.5626L22.8231 33.1001L24.208 34.543ZM17.9288 29.9986L22.8351 34.5543L24.196 33.0887L19.2897 28.533L17.9288 29.9986ZM17.4744 29.9659C17.6123 29.8699 17.8025 29.8814 17.9288 29.9986L19.2897 28.533C18.4656 27.7678 17.2315 27.6973 16.3308 28.3252L17.4744 29.9659ZM17.389 30.0365L17.5255 29.9278L16.2797 28.3632L16.1432 28.4719L17.389 30.0365ZM10.9888 35.8322L17.4372 29.9956L16.095 28.5128L9.64668 34.3494L10.9888 35.8322ZM39.1818 34.0908H10.3177V36.0908H39.1818V34.0908ZM42.2728 30.9999C42.2728 32.707 40.8889 34.0908 39.1818 34.0908V36.0908C41.9935 36.0908 44.2728 33.8116 44.2728 30.9999H42.2728ZM42.2728 28.7704V30.9999H44.2728V28.7704H42.2728ZM42.621 29.5351L42.7012 29.5909L43.8443 27.9498L43.7641 27.894L42.621 29.5351ZM39.1818 2.72729H7.8182V4.72729H39.1818V2.72729ZM44.2727 7.8182C44.2727 5.00657 41.9935 2.72729 39.1818 2.72729V4.72729C40.8889 4.72729 42.2727 6.11114 42.2727 7.8182H44.2727ZM44.2727 25.2891V7.8182H42.2727V25.2891H44.2727ZM37.3672 21.8525L42.6487 26.0705L43.8968 24.5077L38.6153 20.2898L37.3672 21.8525ZM37.1798 21.7131L37.3927 21.8722L38.5899 20.2701L38.3769 20.111L37.1798 21.7131ZM33.2982 22.038C34.3675 21.0117 36.0061 20.8943 37.2059 21.732L38.3508 20.0921C36.3734 18.7114 33.675 18.9042 31.9133 20.595L33.2982 22.038ZM24.177 30.7926L33.2982 22.038L31.9133 20.595L22.7921 29.3497L24.177 30.7926ZM19.7845 28.0001L22.8041 30.8039L24.165 29.3383L21.1454 26.5345L19.7845 28.0001ZM19.6095 27.8483L19.8082 28.0214L21.1218 26.5133L20.9231 26.3402L19.6095 27.8483ZM15.6068 27.9739C16.7456 26.9428 18.4595 26.91 19.6338 27.8689L20.8987 26.3197C18.9629 24.7391 16.1407 24.7925 14.2644 26.4914L15.6068 27.9739ZM7.16778 35.6141L15.6067 27.974L14.2644 26.4913L5.82548 34.1314L7.16778 35.6141ZM2.72729 31C2.72729 33.2377 4.17037 35.1357 6.17374 35.8192L6.81952 33.9263C5.60122 33.5107 4.72729 32.3561 4.72729 31H2.72729ZM2.72729 7.8182V31H4.72729V7.8182H2.72729ZM7.8182 2.72729C5.00657 2.72729 2.72729 5.00657 2.72729 7.8182H4.72729C4.72729 6.11114 6.11114 4.72729 7.8182 4.72729V2.72729Z" fill="black" fill-opacity="0.2" mask="url(#path-1-outside-1_5_131)"/>
</svg>
