<?xml version="1.0" encoding="UTF-8"?>
<svg id="Layer_1" data-name="Layer 1" xmlns="http://www.w3.org/2000/svg" viewBox="0 0 316.69 133.25">
  <path d="M313.75,55.09c-2.91-8.89-15.32-9.46-19.08-.9-.05.12-.11.25-.16.37-.97,2.22-1.15,4.74-.41,7.04,1.59,4.92,2.23,10.26,1.7,15.81-1.81,18.87-17.39,33.89-36.32,35.05-15.64.96-29.46-7.37-36.49-19.97,0,0-2.66-2.18-4.88-16.42.03-.82.06-1.65.06-2.48,0-.51-.03-1.02-.04-1.53.81-20.77,17.93-37.42,38.9-37.42,7.96,0,15.37,2.4,21.54,6.52,4.89,3.26,11.56,1.48,14.44-3.64l.1-.17c2.63-4.68,1.19-10.59-3.29-13.55-9.42-6.22-20.69-9.86-32.79-9.86-15.03,0-28.79,5.59-39.29,14.8V10.14c0-5.6-4.54-10.14-10.14-10.14s-10.14,4.54-10.14,10.14v18.33c-9.75-8.43-22.24-13.76-35.94-14.45-.32-.02-.64-.02-.96-.03-.68-.02-1.36-.06-2.05-.06-.06,0-.11,0-.16,0-.06,0-.12,0-.17,0-5.5,0-10.82.76-15.89,2.16,0,.03.01.06.02.08-11.82,3.34-22.17,10.23-29.79,19.46-.01.02-.03.03-.04.05-1.2,1.46-2.33,2.97-3.39,4.53,0-.01-.02-.02-.02-.03-6.08,8.82-9.75,19.08-10.63,29.78.11,1.19.17,2.4.17,3.62,0,22.31-18.85,40.29-41.46,38.87-19.38-1.22-35.15-16.99-36.37-36.36-1.42-22.61,16.56-41.46,38.87-41.46,9.35,0,17.94,3.31,24.65,8.83,4.82,3.95,11.97,2.54,15.07-2.88.09-.16.18-.32.27-.47,2.51-4.31,1.33-9.8-2.55-12.93-11.8-9.54-27.28-14.68-43.95-12.9-12.32,1.31-23.53,6.45-32.44,14.16V10.14C20.71,4.54,16.17,0,10.57,0S.43,4.54.43,10.14v56.23c-.11.87-.19,1.75-.26,2.63-2.62,34.95,25.08,64.24,59.49,64.24,17.76,0,33.72-7.81,44.65-20.16l-.03-.02c1.72-1.97,3.29-4.05,4.73-6.2,6.06-9.07,9.6-19.61,10.23-30.56.07-1.17.11-2.35.11-3.53h.22c.42-20.37,16.56-36.95,36.76-38.07.33-.02.66-.03,1-.04.33,0,.65-.02.98-.02,14.37.05,26.92,7.92,33.63,19.57.04-.12.08-.24.12-.36,2.6,4.4,4.36,9.36,5.05,14.65-.05.49-.13.98-.17,1.47.11,1.19.17,2.4.17,3.62,0,19.15-13.89,35.1-32.13,38.34,0,.02,0,.04.01.06-2.11.36-4.28.55-6.5.55-9.4,0-18.02-3.35-24.76-8.91-4.88-4.03-12.13-2.58-15.21,2.95-.05.09-.1.18-.15.27-2.4,4.27-1.57,9.65,2.21,12.77,10.31,8.51,23.52,13.63,37.91,13.63,20.01,0,37.74-9.92,48.57-25.08h.01s6.62,6.39,6.62,6.39h.01c11.86,12.53,29.08,19.96,47.96,18.51,29.92-2.29,53.74-27.05,54.95-57.03.3-7.33-.74-14.39-2.89-20.95Z"/>
</svg>