<svg width="16" height="18" viewBox="0 0 16 18" fill="none" xmlns="http://www.w3.org/2000/svg">
<path d="M16 14.7857C16 15.6382 15.699 16.4558 15.1632 17.0586C14.6273 17.6614 13.9006 18 13.1429 18H2.85714C2.09938 18 1.37266 17.6614 0.836838 17.0586C0.30102 16.4558 0 15.6382 0 14.7857V3.21429C0 2.3618 0.30102 1.54424 0.836838 0.941442C1.37266 0.338647 2.09938 0 2.85714 0H13.1429C13.9006 0 14.6273 0.338647 15.1632 0.941442C15.699 1.54424 16 2.3618 16 3.21429V14.7857ZM12.5714 4.5C12.5715 4.34954 12.5246 4.20383 12.439 4.08824C12.3534 3.97265 12.2344 3.89451 12.1029 3.86743L12 3.85714H4L3.89714 3.86743C3.76539 3.89427 3.6462 3.9723 3.56037 4.08791C3.47454 4.20352 3.42752 4.34937 3.42752 4.5C3.42752 4.65063 3.47454 4.79648 3.56037 4.91209C3.6462 5.0277 3.76539 5.10573 3.89714 5.13257L4 5.14286H12L12.1029 5.13257C12.2344 5.10549 12.3534 5.02735 12.439 4.91176C12.5246 4.79617 12.5715 4.65046 12.5714 4.5ZM12.5714 9C12.5715 8.84954 12.5246 8.70383 12.439 8.58824C12.3534 8.47265 12.2344 8.39451 12.1029 8.36743L12 8.35714H4L3.89714 8.36743C3.76539 8.39427 3.6462 8.4723 3.56037 8.58791C3.47454 8.70352 3.42752 8.84937 3.42752 9C3.42752 9.15063 3.47454 9.29648 3.56037 9.41209C3.6462 9.5277 3.76539 9.60573 3.89714 9.63257L4 9.64286H12L12.1029 9.63257C12.2344 9.60549 12.3534 9.52735 12.439 9.41176C12.5246 9.29617 12.5715 9.15046 12.5714 9ZM12.5714 13.5C12.5715 13.3495 12.5246 13.2038 12.439 13.0882C12.3534 12.9727 12.2344 12.8945 12.1029 12.8674L12 12.8571H4L3.89714 12.8674C3.76539 12.8943 3.6462 12.9723 3.56037 13.0879C3.47454 13.2035 3.42752 13.3494 3.42752 13.5C3.42752 13.6506 3.47454 13.7965 3.56037 13.9121C3.6462 14.0277 3.76539 14.1057 3.89714 14.1326L4 14.1429H12L12.1029 14.1326C12.2344 14.1055 12.3534 14.0273 12.439 13.9118C12.5246 13.7962 12.5715 13.6505 12.5714 13.5Z" fill="#929CAD"/>
</svg>
